<svg width="2000" height="2000" viewBox="0 0 2000 2000" fill="none" xmlns="http://www.w3.org/2000/svg">
<g clip-path="url(#clip0_36_131)">
<path d="M1870.59 129.407C1790.67 49.4815 1680.22 0 1558.15 0H441.852C319.852 0 209.407 49.4815 129.407 129.407C49.4815 209.333 0 319.852 0 441.852V646.444H646.444C736.889 556 861.926 500 1000 500C1138.07 500 1263.04 556 1353.56 646.444L1212.15 787.852C1266.44 842.148 1300 917.111 1300 1000C1300 1082.81 1266.44 1157.85 1212.15 1212.15C1157.85 1266.44 1082.89 1300 1000 1300C917.111 1300 842.148 1266.44 787.852 1212.15L646.444 1353.56C736.963 1444.07 861.926 1500 1000 1500C1138.07 1500 1263.04 1444 1353.56 1353.56H2000V441.852C2000 319.852 1950.52 209.407 1870.59 129.407Z" fill="url(#paint0_linear_36_131)"/>
<path d="M1212.15 787.852C1157.85 733.556 1082.89 700 1000 700C917.111 700 842.148 733.556 787.852 787.852C733.556 842.148 700 917.111 700 1000C700 1082.81 733.556 1157.85 787.852 1212.15L1000 1000L1212.15 787.852Z" fill="url(#paint1_linear_36_131)"/>
<path d="M129.407 1870.59C209.333 1950.52 319.778 2000 441.852 2000H1558.22C1680.22 2000 1790.67 1950.52 1870.67 1870.59C1950.59 1790.67 2000.07 1680.15 2000.07 1558.15V1353.56H1353.63C1263.19 1444 1138.15 1500 1000.07 1500C862 1500 737.037 1444 646.518 1353.56L787.926 1212.15C733.63 1157.85 700.074 1082.89 700.074 1000C700.074 917.185 733.63 842.148 787.926 787.852C842.222 733.556 917.185 700 1000.07 700C1082.96 700 1157.93 733.556 1212.22 787.852L1353.63 646.444C1263.11 555.926 1138.15 500 1000.07 500C862 500 737.037 556 646.518 646.444H0V1558.15C0 1680.15 49.4815 1790.59 129.407 1870.59Z" fill="url(#paint2_linear_36_131)"/>
<path d="M787.854 1212.15C842.151 1266.44 917.114 1300 1000 1300C1082.89 1300 1157.85 1266.44 1212.15 1212.15C1266.45 1157.85 1300 1082.89 1300 1000C1300 917.185 1266.45 842.148 1212.15 787.852L1000 1000L787.854 1212.15Z" fill="url(#paint3_linear_36_131)"/>
</g>
<defs>
<linearGradient id="paint0_linear_36_131" x1="1000" y1="0" x2="1000" y2="1500" gradientUnits="userSpaceOnUse">
<stop stop-color="#FF0022"/>
<stop offset="1" stop-color="#FF0099"/>
</linearGradient>
<linearGradient id="paint1_linear_36_131" x1="956.074" y1="700" x2="956.074" y2="1212.15" gradientUnits="userSpaceOnUse">
<stop stop-color="#FF0022"/>
<stop offset="1" stop-color="#FF0099"/>
</linearGradient>
<linearGradient id="paint2_linear_36_131" x1="1000.04" y1="500" x2="1000.04" y2="2000" gradientUnits="userSpaceOnUse">
<stop stop-color="#2200FF"/>
<stop offset="1" stop-color="#9900FF"/>
</linearGradient>
<linearGradient id="paint3_linear_36_131" x1="1043.93" y1="787.852" x2="1043.93" y2="1300" gradientUnits="userSpaceOnUse">
<stop stop-color="#2200FF"/>
<stop offset="1" stop-color="#9900FF"/>
</linearGradient>
<clipPath id="clip0_36_131">
<rect width="2000" height="2000" fill="white"/>
</clipPath>
</defs>
</svg>
