<svg width="2026" height="2026" viewBox="0 0 2026 2026" fill="none" xmlns="http://www.w3.org/2000/svg">
<path d="M142.407 1883.57C222.333 1963.51 332.778 2013 454.852 2013H1571.15C1693.15 2013 1803.59 1963.51 1883.59 1883.57C1963.52 1803.62 2013 1693.08 2013 1571.06V1366.42H1366.56C1276.11 1456.89 1151.07 1512.9 1013 1512.9C874.926 1512.9 749.963 1456.89 659.444 1366.42L800.852 1224.99C746.556 1170.68 713 1095.7 713 1012.79C713 929.962 746.556 854.91 800.852 800.603C855.148 746.295 930.111 712.733 1013 712.733C1095.89 712.733 1170.85 746.295 1225.15 800.603L1366.56 659.166C1276.04 568.629 1151.07 512.692 1013 512.692C874.926 512.692 749.963 568.703 659.444 659.166H13V1571.06C13 1693.08 62.4815 1803.55 142.407 1883.57Z" fill="white" stroke="white" stroke-width="24.6914"/>
<path d="M800.852 1224.99C855.148 1279.29 930.111 1312.86 1013 1312.86C1095.89 1312.86 1170.85 1279.29 1225.15 1224.99C1279.44 1170.68 1313 1095.7 1313 1012.79C1313 929.962 1279.44 854.91 1225.15 800.602L1013 1012.79L800.852 1224.99Z" fill="white" stroke="white" stroke-width="24.6914"/>
<path d="M1225.17 801.013C1170.88 746.706 1095.92 713.144 1013.03 713.144C930.147 713.144 855.186 746.706 800.892 801.013C746.598 855.321 713.043 930.299 713.043 1013.21C713.043 1096.04 746.598 1171.09 800.892 1225.4L1013.03 1013.21L1225.17 801.013Z" fill="white" fill-opacity="0.2" stroke="white" stroke-width="24.6914"/>
<path d="M1883.6 142.434C1803.67 62.4918 1693.23 13.0001 1571.16 13.0001H454.835C332.84 13.0001 222.4 62.4918 142.403 142.434C62.4797 222.377 13 332.918 13 454.943V659.578H659.42C749.862 569.115 874.894 513.103 1012.96 513.103C1151.03 513.103 1275.99 569.115 1366.51 659.578L1225.1 801.014C1279.4 855.321 1312.95 930.3 1312.95 1013.21C1312.95 1096.04 1279.4 1171.09 1225.1 1225.4C1170.81 1279.7 1095.85 1313.27 1012.96 1313.27C930.077 1313.27 855.117 1279.7 800.823 1225.4L659.42 1366.83C749.936 1457.37 874.894 1513.31 1012.96 1513.31C1151.03 1513.31 1275.99 1457.3 1366.51 1366.83H2013V454.943C2013 332.918 1963.52 222.451 1883.6 142.434Z" fill="white" fill-opacity="0.2" stroke="white" stroke-width="24.6914"/>
</svg>
